<svg class="absolute mt-n18 ml-n49 " width="25" height="19" viewBox="0 0 25 19" fill="none" xmlns="http://www.w3.org/2000/svg">
    <path d="M6.942 3.57C6.942 1.828 5.512 0.397999 3.744 0.397999C2.002 0.397999 0.598 1.828 0.598 3.57C0.598 5.338 2.002 6.742 3.744 6.742C5.512 6.742 6.942 5.338 6.942 3.57ZM5.694 3.57C5.694 4.636 4.81 5.494 3.744 5.494C2.704 5.494 1.872 4.636 1.872 3.57C1.872 2.53 2.704 1.646 3.744 1.646C4.81 1.646 5.694 2.53 5.694 3.57ZM17.785 18.312C20.853 18.312 22.933 16.856 24.389 14.88L22.543 13.866C21.555 15.348 19.761 16.388 17.785 16.388C13.989 16.388 11.103 13.45 11.103 9.342C11.103 5.208 13.989 2.296 17.785 2.296C19.761 2.296 21.555 3.362 22.543 4.818L24.363 3.804C22.985 1.854 20.853 0.371999 17.785 0.371999C12.793 0.371999 8.86702 4.012 8.86702 9.342C8.86702 14.672 12.793 18.312 17.785 18.312Z" fill="white"/>
</svg>