<svg class="absolute ml-n76 mt-n18" width="21" height="18" viewBox="0 0 21 18" fill="none" xmlns="http://www.w3.org/2000/svg">
    <path opacity="0.4" d="M6.942 3.57C6.942 1.828 5.512 0.397999 3.744 0.397999C2.002 0.397999 0.598 1.828 0.598 3.57C0.598 5.338 2.002 6.742 3.744 6.742C5.512 6.742 6.942 5.338 6.942 3.57ZM5.694 3.57C5.694 4.636 4.81 5.494 3.744 5.494C2.704 5.494 1.872 4.636 1.872 3.57C1.872 2.53 2.704 1.646 3.744 1.646C4.81 1.646 5.694 2.53 5.694 3.57ZM11.727 18V10.096H20.749V8.172H11.727V2.582H20.931V0.657999H9.56902V18H11.727Z" fill="white"/>
</svg>